<?xml version="1.0" encoding="UTF-8" standalone="no"?>
<!DOCTYPE svg PUBLIC "-//W3C//DTD SVG 1.1//EN"
 "http://www.w3.org/Graphics/SVG/1.1/DTD/svg11.dtd">
<!-- Generated by graphviz version 2.40.1 (20161225.0304)
 -->
<!-- Title: unnamed Pages: 1 -->
<svg width="853pt" height="483pt"
 viewBox="0.00 0.00 852.85 483.00" xmlns="http://www.w3.org/2000/svg" xmlns:xlink="http://www.w3.org/1999/xlink">
<g id="graph0" class="graph" transform="scale(1 1) rotate(0) translate(4 479)">
<title>unnamed</title>
<polygon fill="#ffffff" stroke="transparent" points="-4,4 -4,-479 848.8452,-479 848.8452,4 -4,4"/>
<!-- Node0xb8fbc40 -->
<g id="node1" class="node">
<title>Node0xb8fbc40</title>
<polygon fill="none" stroke="#000000" points="283.1348,-438.5 283.1348,-474.5 387.8174,-474.5 387.8174,-438.5 283.1348,-438.5"/>
<text text-anchor="middle" x="335.4761" y="-452.3" font-family="Times,serif" font-size="14.00" fill="#000000">CompoundStmt</text>
</g>
<!-- Node0xb8fb858 -->
<g id="node2" class="node">
<title>Node0xb8fb858</title>
<polygon fill="none" stroke="#000000" points="83.0347,-365.5 83.0347,-401.5 151.9175,-401.5 151.9175,-365.5 83.0347,-365.5"/>
<text text-anchor="middle" x="117.4761" y="-379.3" font-family="Times,serif" font-size="14.00" fill="#000000">DeclStmt</text>
</g>
<!-- Node0xb8fbc40&#45;&gt;Node0xb8fb858 -->
<g id="edge1" class="edge">
<title>Node0xb8fbc40&#45;&gt;Node0xb8fb858</title>
<path fill="none" stroke="#000000" d="M282.9822,-438.9218C245.9003,-426.5045 196.7585,-410.0487 161.6764,-398.301"/>
<polygon fill="#000000" stroke="#000000" points="162.7699,-394.9762 152.176,-395.1197 160.5471,-401.614 162.7699,-394.9762"/>
</g>
<!-- Node0xb8fb908 -->
<g id="node3" class="node">
<title>Node0xb8fb908</title>
<polygon fill="none" stroke="#000000" points="182.0347,-365.5 182.0347,-401.5 250.9175,-401.5 250.9175,-365.5 182.0347,-365.5"/>
<text text-anchor="middle" x="216.4761" y="-379.3" font-family="Times,serif" font-size="14.00" fill="#000000">DeclStmt</text>
</g>
<!-- Node0xb8fbc40&#45;&gt;Node0xb8fb908 -->
<g id="edge2" class="edge">
<title>Node0xb8fbc40&#45;&gt;Node0xb8fb908</title>
<path fill="none" stroke="#000000" d="M306.0603,-438.4551C290.613,-428.979 271.4945,-417.2508 254.8916,-407.0658"/>
<polygon fill="#000000" stroke="#000000" points="256.32,-403.836 245.9658,-401.5904 252.6596,-409.8028 256.32,-403.836"/>
</g>
<!-- Node0xb8fbbd0 -->
<g id="node4" class="node">
<title>Node0xb8fbbd0</title>
<polygon fill="none" stroke="#000000" points="364.5244,-365.5 364.5244,-401.5 426.4277,-401.5 426.4277,-365.5 364.5244,-365.5"/>
<text text-anchor="middle" x="395.4761" y="-379.3" font-family="Times,serif" font-size="14.00" fill="#000000">ForStmt</text>
</g>
<!-- Node0xb8fbc40&#45;&gt;Node0xb8fbbd0 -->
<g id="edge3" class="edge">
<title>Node0xb8fbc40&#45;&gt;Node0xb8fbbd0</title>
<path fill="none" stroke="#000000" d="M350.3075,-438.4551C357.5192,-429.6809 366.3178,-418.9759 374.227,-409.353"/>
<polygon fill="#000000" stroke="#000000" points="376.9615,-411.5382 380.6073,-401.5904 371.5537,-407.0934 376.9615,-411.5382"/>
</g>
<!-- Node0xb8fbc28 -->
<g id="node5" class="node">
<title>Node0xb8fbc28</title>
<polygon fill="none" stroke="#000000" points="578.1968,-365.5 578.1968,-401.5 658.7554,-401.5 658.7554,-365.5 578.1968,-365.5"/>
<text text-anchor="middle" x="618.4761" y="-379.3" font-family="Times,serif" font-size="14.00" fill="#000000">ReturnStmt</text>
</g>
<!-- Node0xb8fbc40&#45;&gt;Node0xb8fbc28 -->
<g id="edge4" class="edge">
<title>Node0xb8fbc40&#45;&gt;Node0xb8fbc28</title>
<path fill="none" stroke="#000000" d="M387.9966,-440.3761C390.8607,-439.5579 393.7012,-438.7608 396.4761,-438 455.0093,-421.9517 522.8354,-405.6277 567.9618,-395.0847"/>
<polygon fill="#000000" stroke="#000000" points="568.8516,-398.4713 577.7972,-392.7945 567.264,-391.6537 568.8516,-398.4713"/>
</g>
<!-- Node0xb8fb838 -->
<g id="node6" class="node">
<title>Node0xb8fb838</title>
<polygon fill="none" stroke="#000000" points="0,-292.5 0,-328.5 92.9521,-328.5 92.9521,-292.5 0,-292.5"/>
<text text-anchor="middle" x="46.4761" y="-306.3" font-family="Times,serif" font-size="14.00" fill="#000000">IntegerLiteral</text>
</g>
<!-- Node0xb8fb858&#45;&gt;Node0xb8fb838 -->
<g id="edge5" class="edge">
<title>Node0xb8fb858&#45;&gt;Node0xb8fb838</title>
<path fill="none" stroke="#000000" d="M99.9255,-365.4551C91.2211,-356.5054 80.5629,-345.547 71.0605,-335.7769"/>
<polygon fill="#000000" stroke="#000000" points="73.552,-333.3187 64.0708,-328.5904 68.534,-338.1992 73.552,-333.3187"/>
</g>
<!-- Node0xb8fb8e8 -->
<g id="node7" class="node">
<title>Node0xb8fb8e8</title>
<polygon fill="none" stroke="#000000" points="111,-292.5 111,-328.5 203.9521,-328.5 203.9521,-292.5 111,-292.5"/>
<text text-anchor="middle" x="157.4761" y="-306.3" font-family="Times,serif" font-size="14.00" fill="#000000">IntegerLiteral</text>
</g>
<!-- Node0xb8fb908&#45;&gt;Node0xb8fb8e8 -->
<g id="edge6" class="edge">
<title>Node0xb8fb908&#45;&gt;Node0xb8fb8e8</title>
<path fill="none" stroke="#000000" d="M201.8918,-365.4551C194.8713,-356.7686 186.3213,-346.1898 178.6045,-336.642"/>
<polygon fill="#000000" stroke="#000000" points="181.105,-334.1677 172.097,-328.5904 175.6608,-338.5678 181.105,-334.1677"/>
</g>
<!-- Node0xb8fb968 -->
<g id="node8" class="node">
<title>Node0xb8fb968</title>
<polygon fill="none" stroke="#000000" points="221.5483,-292.5 221.5483,-328.5 325.4038,-328.5 325.4038,-292.5 221.5483,-292.5"/>
<text text-anchor="middle" x="273.4761" y="-306.3" font-family="Times,serif" font-size="14.00" fill="#000000">BinaryOperator</text>
</g>
<!-- Node0xb8fbbd0&#45;&gt;Node0xb8fb968 -->
<g id="edge7" class="edge">
<title>Node0xb8fbbd0&#45;&gt;Node0xb8fb968</title>
<path fill="none" stroke="#000000" d="M365.3188,-365.4551C349.3354,-355.8912 329.5182,-344.0334 312.3879,-333.7833"/>
<polygon fill="#000000" stroke="#000000" points="314.0876,-330.7216 303.7093,-328.5904 310.4933,-336.7284 314.0876,-330.7216"/>
</g>
<!-- Node0xb8fb9f0 -->
<g id="node9" class="node">
<title>Node0xb8fb9f0</title>
<polygon fill="none" stroke="#000000" points="343.5483,-292.5 343.5483,-328.5 447.4038,-328.5 447.4038,-292.5 343.5483,-292.5"/>
<text text-anchor="middle" x="395.4761" y="-306.3" font-family="Times,serif" font-size="14.00" fill="#000000">BinaryOperator</text>
</g>
<!-- Node0xb8fbbd0&#45;&gt;Node0xb8fb9f0 -->
<g id="edge8" class="edge">
<title>Node0xb8fbbd0&#45;&gt;Node0xb8fb9f0</title>
<path fill="none" stroke="#000000" d="M395.4761,-365.4551C395.4761,-357.3828 395.4761,-347.6764 395.4761,-338.6817"/>
<polygon fill="#000000" stroke="#000000" points="398.9762,-338.5903 395.4761,-328.5904 391.9762,-338.5904 398.9762,-338.5903"/>
</g>
<!-- Node0xb8fba40 -->
<g id="node10" class="node">
<title>Node0xb8fba40</title>
<polygon fill="none" stroke="#000000" points="465.1069,-292.5 465.1069,-328.5 565.8452,-328.5 565.8452,-292.5 465.1069,-292.5"/>
<text text-anchor="middle" x="515.4761" y="-306.3" font-family="Times,serif" font-size="14.00" fill="#000000">UnaryOperator</text>
</g>
<!-- Node0xb8fbbd0&#45;&gt;Node0xb8fba40 -->
<g id="edge9" class="edge">
<title>Node0xb8fbbd0&#45;&gt;Node0xb8fba40</title>
<path fill="none" stroke="#000000" d="M425.139,-365.4551C440.7161,-355.979 459.9953,-344.2508 476.7378,-334.0658"/>
<polygon fill="#000000" stroke="#000000" points="479.0142,-336.7778 485.7385,-328.5904 475.3761,-330.7974 479.0142,-336.7778"/>
</g>
<!-- Node0xb8fbbb0 -->
<g id="node11" class="node">
<title>Node0xb8fbbb0</title>
<polygon fill="none" stroke="#000000" points="584.1348,-292.5 584.1348,-328.5 688.8174,-328.5 688.8174,-292.5 584.1348,-292.5"/>
<text text-anchor="middle" x="636.4761" y="-306.3" font-family="Times,serif" font-size="14.00" fill="#000000">CompoundStmt</text>
</g>
<!-- Node0xb8fbbd0&#45;&gt;Node0xb8fbbb0 -->
<g id="edge10" class="edge">
<title>Node0xb8fbbd0&#45;&gt;Node0xb8fbbb0</title>
<path fill="none" stroke="#000000" d="M426.4892,-374.106C463.6383,-362.8533 526.7832,-343.7265 574.1498,-329.3789"/>
<polygon fill="#000000" stroke="#000000" points="575.4468,-332.6432 584.0027,-326.3944 573.4175,-325.9437 575.4468,-332.6432"/>
</g>
<!-- Node0xb8fbc08 -->
<g id="node28" class="node">
<title>Node0xb8fbc08</title>
<polygon fill="none" stroke="#000000" points="707,-292.5 707,-328.5 799.9521,-328.5 799.9521,-292.5 707,-292.5"/>
<text text-anchor="middle" x="753.4761" y="-306.3" font-family="Times,serif" font-size="14.00" fill="#000000">IntegerLiteral</text>
</g>
<!-- Node0xb8fbc28&#45;&gt;Node0xb8fbc08 -->
<g id="edge26" class="edge">
<title>Node0xb8fbc28&#45;&gt;Node0xb8fbc08</title>
<path fill="none" stroke="#000000" d="M651.8469,-365.4551C669.7768,-355.7596 692.0666,-343.7066 711.1988,-333.361"/>
<polygon fill="#000000" stroke="#000000" points="712.8898,-336.4257 720.0213,-328.5904 709.5602,-330.2682 712.8898,-336.4257"/>
</g>
<!-- Node0xb8fb920 -->
<g id="node12" class="node">
<title>Node0xb8fb920</title>
<polygon fill="none" stroke="#000000" points="80.5483,-219.5 80.5483,-255.5 170.4038,-255.5 170.4038,-219.5 80.5483,-219.5"/>
<text text-anchor="middle" x="125.4761" y="-233.3" font-family="Times,serif" font-size="14.00" fill="#000000">DeclRefExpr</text>
</g>
<!-- Node0xb8fb968&#45;&gt;Node0xb8fb920 -->
<g id="edge11" class="edge">
<title>Node0xb8fb968&#45;&gt;Node0xb8fb920</title>
<path fill="none" stroke="#000000" d="M236.8918,-292.4551C217.0574,-282.6719 192.3564,-270.4883 171.2559,-260.0806"/>
<polygon fill="#000000" stroke="#000000" points="172.6691,-256.8751 162.1524,-255.5904 169.5725,-263.1529 172.6691,-256.8751"/>
</g>
<!-- Node0xb8fb948 -->
<g id="node13" class="node">
<title>Node0xb8fb948</title>
<polygon fill="none" stroke="#000000" points="188,-219.5 188,-255.5 280.9521,-255.5 280.9521,-219.5 188,-219.5"/>
<text text-anchor="middle" x="234.4761" y="-233.3" font-family="Times,serif" font-size="14.00" fill="#000000">IntegerLiteral</text>
</g>
<!-- Node0xb8fb968&#45;&gt;Node0xb8fb948 -->
<g id="edge12" class="edge">
<title>Node0xb8fb968&#45;&gt;Node0xb8fb948</title>
<path fill="none" stroke="#000000" d="M263.8356,-292.4551C259.3356,-284.0319 253.8848,-273.8292 248.9075,-264.5128"/>
<polygon fill="#000000" stroke="#000000" points="251.9401,-262.7613 244.1408,-255.5904 245.7659,-266.0598 251.9401,-262.7613"/>
</g>
<!-- Node0xb8fb9d8 -->
<g id="node15" class="node">
<title>Node0xb8fb9d8</title>
<polygon fill="none" stroke="#000000" points="299.2622,-219.5 299.2622,-255.5 411.6899,-255.5 411.6899,-219.5 299.2622,-219.5"/>
<text text-anchor="middle" x="355.4761" y="-233.3" font-family="Times,serif" font-size="14.00" fill="#000000">ImplicitCastExpr</text>
</g>
<!-- Node0xb8fb9f0&#45;&gt;Node0xb8fb9d8 -->
<g id="edge13" class="edge">
<title>Node0xb8fb9f0&#45;&gt;Node0xb8fb9d8</title>
<path fill="none" stroke="#000000" d="M385.5884,-292.4551C380.973,-284.0319 375.3825,-273.8292 370.2776,-264.5128"/>
<polygon fill="#000000" stroke="#000000" points="373.2634,-262.6782 365.3886,-255.5904 367.1246,-266.042 373.2634,-262.6782"/>
</g>
<!-- Node0xb8fb9b8 -->
<g id="node16" class="node">
<title>Node0xb8fb9b8</title>
<polygon fill="none" stroke="#000000" points="430,-219.5 430,-255.5 522.9521,-255.5 522.9521,-219.5 430,-219.5"/>
<text text-anchor="middle" x="476.4761" y="-233.3" font-family="Times,serif" font-size="14.00" fill="#000000">IntegerLiteral</text>
</g>
<!-- Node0xb8fb9f0&#45;&gt;Node0xb8fb9b8 -->
<g id="edge14" class="edge">
<title>Node0xb8fb9f0&#45;&gt;Node0xb8fb9b8</title>
<path fill="none" stroke="#000000" d="M415.4986,-292.4551C425.5263,-283.4177 437.827,-272.3319 448.7475,-262.4899"/>
<polygon fill="#000000" stroke="#000000" points="451.318,-264.885 456.4032,-255.5904 446.6316,-259.6852 451.318,-264.885"/>
</g>
<!-- Node0xb8fba18 -->
<g id="node18" class="node">
<title>Node0xb8fba18</title>
<polygon fill="none" stroke="#000000" points="540.5483,-219.5 540.5483,-255.5 630.4038,-255.5 630.4038,-219.5 540.5483,-219.5"/>
<text text-anchor="middle" x="585.4761" y="-233.3" font-family="Times,serif" font-size="14.00" fill="#000000">DeclRefExpr</text>
</g>
<!-- Node0xb8fba40&#45;&gt;Node0xb8fba18 -->
<g id="edge16" class="edge">
<title>Node0xb8fba40&#45;&gt;Node0xb8fba18</title>
<path fill="none" stroke="#000000" d="M532.7794,-292.4551C541.2772,-283.5932 551.6635,-272.7616 560.962,-263.0646"/>
<polygon fill="#000000" stroke="#000000" points="563.7342,-265.2306 568.1292,-255.5904 558.6817,-260.3858 563.7342,-265.2306"/>
</g>
<!-- Node0xb8fbb78 -->
<g id="node19" class="node">
<title>Node0xb8fbb78</title>
<polygon fill="none" stroke="#000000" points="648.4761,-219.5 648.4761,-255.5 702.4761,-255.5 702.4761,-219.5 648.4761,-219.5"/>
<text text-anchor="middle" x="675.3657" y="-233.3" font-family="Times,serif" font-size="14.00" fill="#000000">IfStmt</text>
</g>
<!-- Node0xb8fbbb0&#45;&gt;Node0xb8fbb78 -->
<g id="edge17" class="edge">
<title>Node0xb8fbbb0&#45;&gt;Node0xb8fbb78</title>
<path fill="none" stroke="#000000" d="M646.1165,-292.4551C650.6166,-284.0319 656.0673,-273.8292 661.0446,-264.5128"/>
<polygon fill="#000000" stroke="#000000" points="664.1862,-266.0598 665.8114,-255.5904 658.0121,-262.7613 664.1862,-266.0598"/>
</g>
<!-- Node0x0 -->
<g id="node14" class="node">
<title>Node0x0</title>
<polygon fill="none" stroke="#000000" points="405.9185,-438.5 405.9185,-474.5 475.0337,-474.5 475.0337,-438.5 405.9185,-438.5"/>
<text text-anchor="middle" x="440.4761" y="-452.3" font-family="Times,serif" font-size="14.00" fill="#000000">&lt;NULL&gt;</text>
</g>
<!-- Node0xb8fb990 -->
<g id="node17" class="node">
<title>Node0xb8fb990</title>
<polygon fill="none" stroke="#000000" points="310.5483,-146.5 310.5483,-182.5 400.4038,-182.5 400.4038,-146.5 310.5483,-146.5"/>
<text text-anchor="middle" x="355.4761" y="-160.3" font-family="Times,serif" font-size="14.00" fill="#000000">DeclRefExpr</text>
</g>
<!-- Node0xb8fb9d8&#45;&gt;Node0xb8fb990 -->
<g id="edge15" class="edge">
<title>Node0xb8fb9d8&#45;&gt;Node0xb8fb990</title>
<path fill="none" stroke="#000000" d="M355.4761,-219.4551C355.4761,-211.3828 355.4761,-201.6764 355.4761,-192.6817"/>
<polygon fill="#000000" stroke="#000000" points="358.9762,-192.5903 355.4761,-182.5904 351.9762,-192.5904 358.9762,-192.5903"/>
</g>
<!-- Node0xb8fbac0 -->
<g id="node20" class="node">
<title>Node0xb8fbac0</title>
<polygon fill="none" stroke="#000000" points="503.5483,-146.5 503.5483,-182.5 607.4038,-182.5 607.4038,-146.5 503.5483,-146.5"/>
<text text-anchor="middle" x="555.4761" y="-160.3" font-family="Times,serif" font-size="14.00" fill="#000000">BinaryOperator</text>
</g>
<!-- Node0xb8fbb78&#45;&gt;Node0xb8fbac0 -->
<g id="edge18" class="edge">
<title>Node0xb8fbb78&#45;&gt;Node0xb8fbac0</title>
<path fill="none" stroke="#000000" d="M648.2462,-220.9352C632.2292,-211.1915 611.7179,-198.7138 594.0567,-187.9699"/>
<polygon fill="#000000" stroke="#000000" points="595.4822,-184.7403 585.1197,-182.5332 591.8441,-190.7207 595.4822,-184.7403"/>
</g>
<!-- Node0xb8fbb10 -->
<g id="node21" class="node">
<title>Node0xb8fbb10</title>
<polygon fill="none" stroke="#000000" points="625.1069,-146.5 625.1069,-182.5 725.8452,-182.5 725.8452,-146.5 625.1069,-146.5"/>
<text text-anchor="middle" x="675.4761" y="-160.3" font-family="Times,serif" font-size="14.00" fill="#000000">UnaryOperator</text>
</g>
<!-- Node0xb8fbb78&#45;&gt;Node0xb8fbb10 -->
<g id="edge19" class="edge">
<title>Node0xb8fbb78&#45;&gt;Node0xb8fbb10</title>
<path fill="none" stroke="#000000" d="M675.4761,-219.4551C675.4761,-211.3828 675.4761,-201.6764 675.4761,-192.6817"/>
<polygon fill="#000000" stroke="#000000" points="678.9762,-192.5903 675.4761,-182.5904 671.9762,-192.5904 678.9762,-192.5903"/>
</g>
<!-- Node0xb8fbb58 -->
<g id="node22" class="node">
<title>Node0xb8fbb58</title>
<polygon fill="none" stroke="#000000" points="744.1069,-146.5 744.1069,-182.5 844.8452,-182.5 844.8452,-146.5 744.1069,-146.5"/>
<text text-anchor="middle" x="794.4761" y="-160.3" font-family="Times,serif" font-size="14.00" fill="#000000">UnaryOperator</text>
</g>
<!-- Node0xb8fbb78&#45;&gt;Node0xb8fbb58 -->
<g id="edge20" class="edge">
<title>Node0xb8fbb78&#45;&gt;Node0xb8fbb58</title>
<path fill="none" stroke="#000000" d="M702.479,-220.9352C718.3625,-211.1915 738.7029,-198.7138 756.2169,-187.9699"/>
<polygon fill="#000000" stroke="#000000" points="758.3856,-190.7456 765.0794,-182.5332 754.7253,-184.7789 758.3856,-190.7456"/>
</g>
<!-- Node0xb8fbaa8 -->
<g id="node23" class="node">
<title>Node0xb8fbaa8</title>
<polygon fill="none" stroke="#000000" points="384.2622,-73.5 384.2622,-109.5 496.6899,-109.5 496.6899,-73.5 384.2622,-73.5"/>
<text text-anchor="middle" x="440.4761" y="-87.3" font-family="Times,serif" font-size="14.00" fill="#000000">ImplicitCastExpr</text>
</g>
<!-- Node0xb8fbac0&#45;&gt;Node0xb8fbaa8 -->
<g id="edge21" class="edge">
<title>Node0xb8fbac0&#45;&gt;Node0xb8fbaa8</title>
<path fill="none" stroke="#000000" d="M527.0491,-146.4551C512.121,-136.979 493.6451,-125.2508 477.6003,-115.0658"/>
<polygon fill="#000000" stroke="#000000" points="479.293,-111.9947 468.9746,-109.5904 475.5415,-117.9046 479.293,-111.9947"/>
</g>
<!-- Node0xb8fba88 -->
<g id="node24" class="node">
<title>Node0xb8fba88</title>
<polygon fill="none" stroke="#000000" points="515,-73.5 515,-109.5 607.9521,-109.5 607.9521,-73.5 515,-73.5"/>
<text text-anchor="middle" x="561.4761" y="-87.3" font-family="Times,serif" font-size="14.00" fill="#000000">IntegerLiteral</text>
</g>
<!-- Node0xb8fbac0&#45;&gt;Node0xb8fba88 -->
<g id="edge22" class="edge">
<title>Node0xb8fbac0&#45;&gt;Node0xb8fba88</title>
<path fill="none" stroke="#000000" d="M556.9592,-146.4551C557.6227,-138.3828 558.4205,-128.6764 559.1598,-119.6817"/>
<polygon fill="#000000" stroke="#000000" points="562.6582,-119.8435 559.9892,-109.5904 555.6817,-119.27 562.6582,-119.8435"/>
</g>
<!-- Node0xb8fbae8 -->
<g id="node26" class="node">
<title>Node0xb8fbae8</title>
<polygon fill="none" stroke="#000000" points="630.5483,-73.5 630.5483,-109.5 720.4038,-109.5 720.4038,-73.5 630.5483,-73.5"/>
<text text-anchor="middle" x="675.4761" y="-87.3" font-family="Times,serif" font-size="14.00" fill="#000000">DeclRefExpr</text>
</g>
<!-- Node0xb8fbb10&#45;&gt;Node0xb8fbae8 -->
<g id="edge24" class="edge">
<title>Node0xb8fbb10&#45;&gt;Node0xb8fbae8</title>
<path fill="none" stroke="#000000" d="M675.4761,-146.4551C675.4761,-138.3828 675.4761,-128.6764 675.4761,-119.6817"/>
<polygon fill="#000000" stroke="#000000" points="678.9762,-119.5903 675.4761,-109.5904 671.9762,-119.5904 678.9762,-119.5903"/>
</g>
<!-- Node0xb8fbb30 -->
<g id="node27" class="node">
<title>Node0xb8fbb30</title>
<polygon fill="none" stroke="#000000" points="749.5483,-73.5 749.5483,-109.5 839.4038,-109.5 839.4038,-73.5 749.5483,-73.5"/>
<text text-anchor="middle" x="794.4761" y="-87.3" font-family="Times,serif" font-size="14.00" fill="#000000">DeclRefExpr</text>
</g>
<!-- Node0xb8fbb58&#45;&gt;Node0xb8fbb30 -->
<g id="edge25" class="edge">
<title>Node0xb8fbb58&#45;&gt;Node0xb8fbb30</title>
<path fill="none" stroke="#000000" d="M794.4761,-146.4551C794.4761,-138.3828 794.4761,-128.6764 794.4761,-119.6817"/>
<polygon fill="#000000" stroke="#000000" points="797.9762,-119.5903 794.4761,-109.5904 790.9762,-119.5904 797.9762,-119.5903"/>
</g>
<!-- Node0xb8fba60 -->
<g id="node25" class="node">
<title>Node0xb8fba60</title>
<polygon fill="none" stroke="#000000" points="395.5483,-.5 395.5483,-36.5 485.4038,-36.5 485.4038,-.5 395.5483,-.5"/>
<text text-anchor="middle" x="440.4761" y="-14.3" font-family="Times,serif" font-size="14.00" fill="#000000">DeclRefExpr</text>
</g>
<!-- Node0xb8fbaa8&#45;&gt;Node0xb8fba60 -->
<g id="edge23" class="edge">
<title>Node0xb8fbaa8&#45;&gt;Node0xb8fba60</title>
<path fill="none" stroke="#000000" d="M440.4761,-73.4551C440.4761,-65.3828 440.4761,-55.6764 440.4761,-46.6817"/>
<polygon fill="#000000" stroke="#000000" points="443.9762,-46.5903 440.4761,-36.5904 436.9762,-46.5904 443.9762,-46.5903"/>
</g>
</g>
</svg>
