<?xml version="1.0" encoding="UTF-8" standalone="no"?>
<!DOCTYPE svg PUBLIC "-//W3C//DTD SVG 1.1//EN"
 "http://www.w3.org/Graphics/SVG/1.1/DTD/svg11.dtd">
<!-- Generated by graphviz version 2.40.1 (20161225.0304)
 -->
<!-- Title: unnamed Pages: 1 -->
<svg width="533pt" height="634pt"
 viewBox="0.00 0.00 533.35 634.00" xmlns="http://www.w3.org/2000/svg" xmlns:xlink="http://www.w3.org/1999/xlink">
<g id="graph0" class="graph" transform="scale(1 1) rotate(0) translate(4 630)">
<title>unnamed</title>
<polygon fill="#ffffff" stroke="transparent" points="-4,4 -4,-630 529.3457,-630 529.3457,4 -4,4"/>
<!-- Node0xcacbea0 -->
<g id="node1" class="node">
<title>Node0xcacbea0</title>
<polygon fill="none" stroke="#000000" points="107.4917,-94.5 107.4917,-130.5 193.854,-130.5 193.854,-94.5 107.4917,-94.5"/>
<text text-anchor="start" x="115.4917" y="-108.3" font-family="Times,serif" font-size="14.00" fill="#000000">[B0 (EXIT)]</text>
</g>
<!-- Node0xcacbf78 -->
<g id="node2" class="node">
<title>Node0xcacbf78</title>
<polygon fill="none" stroke="#000000" points="95.2383,-195.5 95.2383,-245.5 206.1074,-245.5 206.1074,-195.5 95.2383,-195.5"/>
<text text-anchor="start" x="103.2383" y="-230.3" font-family="Times,serif" font-size="14.00" fill="#000000">[B1]</text>
<text text-anchor="start" x="103.2383" y="-216.3" font-family="Times,serif" font-size="14.00" fill="#000000"> 1: 0</text>
<text text-anchor="start" x="103.2383" y="-202.3" font-family="Times,serif" font-size="14.00" fill="#000000"> 2: return [B1.1];</text>
</g>
<!-- Node0xcacbf78&#45;&gt;Node0xcacbea0 -->
<g id="edge1" class="edge">
<title>Node0xcacbf78&#45;&gt;Node0xcacbea0</title>
<path fill="none" stroke="#000000" d="M150.6729,-195.4512C150.6729,-179.1962 150.6729,-157.9722 150.6729,-141.062"/>
<polygon fill="#000000" stroke="#000000" points="154.1729,-140.6681 150.6729,-130.6681 147.1729,-140.6682 154.1729,-140.6681"/>
</g>
<!-- Node0xcacc050 -->
<g id="node3" class="node">
<title>Node0xcacc050</title>
<polygon fill="none" stroke="#000000" points="230.7515,-.5 230.7515,-50.5 316.5942,-50.5 316.5942,-.5 230.7515,-.5"/>
<text text-anchor="start" x="238.7515" y="-35.3" font-family="Times,serif" font-size="14.00" fill="#000000">[B2]</text>
<text text-anchor="start" x="238.7515" y="-21.3" font-family="Times,serif" font-size="14.00" fill="#000000"> 1: i</text>
<text text-anchor="start" x="238.7515" y="-7.3" font-family="Times,serif" font-size="14.00" fill="#000000"> 2: ++[B2.1]</text>
</g>
<!-- Node0xcacc3f0 -->
<g id="node4" class="node">
<title>Node0xcacc3f0</title>
<polygon fill="none" stroke="#000000" points="0,-303.5 0,-395.5 301.3457,-395.5 301.3457,-303.5 0,-303.5"/>
<text text-anchor="start" x="8" y="-380.3" font-family="Times,serif" font-size="14.00" fill="#000000">[B6]</text>
<text text-anchor="start" x="8" y="-366.3" font-family="Times,serif" font-size="14.00" fill="#000000"> 1: i</text>
<text text-anchor="start" x="8" y="-352.3" font-family="Times,serif" font-size="14.00" fill="#000000"> 2: [B6.1] (ImplicitCastExpr, LValueToRValue, int)</text>
<text text-anchor="start" x="8" y="-338.3" font-family="Times,serif" font-size="14.00" fill="#000000"> 3: 5</text>
<text text-anchor="start" x="8" y="-324.3" font-family="Times,serif" font-size="14.00" fill="#000000"> 4: [B6.2] &lt; [B6.3]</text>
<text text-anchor="start" x="8" y="-310.3" font-family="Times,serif" font-size="14.00" fill="#000000"> T: for (...; [B6.4]; ...)</text>
</g>
<!-- Node0xcacc050&#45;&gt;Node0xcacc3f0 -->
<g id="edge2" class="edge">
<title>Node0xcacc050&#45;&gt;Node0xcacc3f0</title>
<path fill="none" stroke="#000000" d="M230.679,-35.1817C184.5585,-46.4675 115.6335,-66.2376 98.6729,-87 47.9493,-149.0932 60.7001,-191.1458 86.6729,-267 90.0104,-276.7473 95.0205,-286.233 100.7961,-295.0928"/>
<polygon fill="#000000" stroke="#000000" points="97.9674,-297.1557 106.5385,-303.3836 103.7219,-293.17 97.9674,-297.1557"/>
</g>
<!-- Node0xcacc3f0&#45;&gt;Node0xcacbf78 -->
<g id="edge8" class="edge">
<title>Node0xcacc3f0&#45;&gt;Node0xcacbf78</title>
<path fill="none" stroke="#000000" d="M150.6729,-303.2924C150.6729,-287.7015 150.6729,-270.5561 150.6729,-255.9317"/>
<polygon fill="#000000" stroke="#000000" points="154.173,-255.7867 150.6729,-245.7867 147.173,-255.7867 154.173,-255.7867"/>
</g>
<!-- Node0xcacc2f8 -->
<g id="node7" class="node">
<title>Node0xcacc2f8</title>
<polygon fill="none" stroke="#000000" points="224,-174.5 224,-266.5 525.3457,-266.5 525.3457,-174.5 224,-174.5"/>
<text text-anchor="start" x="232" y="-251.3" font-family="Times,serif" font-size="14.00" fill="#000000">[B5]</text>
<text text-anchor="start" x="232" y="-237.3" font-family="Times,serif" font-size="14.00" fill="#000000"> 1: i</text>
<text text-anchor="start" x="232" y="-223.3" font-family="Times,serif" font-size="14.00" fill="#000000"> 2: [B5.1] (ImplicitCastExpr, LValueToRValue, int)</text>
<text text-anchor="start" x="232" y="-209.3" font-family="Times,serif" font-size="14.00" fill="#000000"> 3: 3</text>
<text text-anchor="start" x="232" y="-195.3" font-family="Times,serif" font-size="14.00" fill="#000000"> 4: [B5.2] &gt; [B5.3]</text>
<text text-anchor="start" x="232" y="-181.3" font-family="Times,serif" font-size="14.00" fill="#000000"> T: if [B5.4]</text>
</g>
<!-- Node0xcacc3f0&#45;&gt;Node0xcacc2f8 -->
<g id="edge7" class="edge">
<title>Node0xcacc3f0&#45;&gt;Node0xcacc2f8</title>
<path fill="none" stroke="#000000" d="M230.5933,-303.4744C248.5172,-293.1522 267.6381,-282.1405 285.8977,-271.625"/>
<polygon fill="#000000" stroke="#000000" points="287.8642,-274.5314 294.7832,-266.5079 284.3708,-268.4654 287.8642,-274.5314"/>
</g>
<!-- Node0xcacc128 -->
<g id="node5" class="node">
<title>Node0xcacc128</title>
<polygon fill="none" stroke="#000000" points="233.9849,-87.5 233.9849,-137.5 313.3608,-137.5 313.3608,-87.5 233.9849,-87.5"/>
<text text-anchor="start" x="241.9849" y="-122.3" font-family="Times,serif" font-size="14.00" fill="#000000">[B3]</text>
<text text-anchor="start" x="241.9849" y="-108.3" font-family="Times,serif" font-size="14.00" fill="#000000"> 1: j</text>
<text text-anchor="start" x="241.9849" y="-94.3" font-family="Times,serif" font-size="14.00" fill="#000000"> 2: &#45;&#45;[B3.1]</text>
</g>
<!-- Node0xcacc128&#45;&gt;Node0xcacc050 -->
<g id="edge3" class="edge">
<title>Node0xcacc128&#45;&gt;Node0xcacc050</title>
<path fill="none" stroke="#000000" d="M273.6729,-87.336C273.6729,-79.0399 273.6729,-69.6547 273.6729,-60.7485"/>
<polygon fill="#000000" stroke="#000000" points="277.173,-60.6074 273.6729,-50.6075 270.173,-60.6075 277.173,-60.6074"/>
</g>
<!-- Node0xcacc200 -->
<g id="node6" class="node">
<title>Node0xcacc200</title>
<polygon fill="none" stroke="#000000" points="331.7515,-87.5 331.7515,-137.5 417.5942,-137.5 417.5942,-87.5 331.7515,-87.5"/>
<text text-anchor="start" x="339.7515" y="-122.3" font-family="Times,serif" font-size="14.00" fill="#000000">[B4]</text>
<text text-anchor="start" x="339.7515" y="-108.3" font-family="Times,serif" font-size="14.00" fill="#000000"> 1: j</text>
<text text-anchor="start" x="339.7515" y="-94.3" font-family="Times,serif" font-size="14.00" fill="#000000"> 2: ++[B4.1]</text>
</g>
<!-- Node0xcacc200&#45;&gt;Node0xcacc050 -->
<g id="edge4" class="edge">
<title>Node0xcacc200&#45;&gt;Node0xcacc050</title>
<path fill="none" stroke="#000000" d="M345.4595,-87.336C334.5721,-77.9578 322.0691,-67.1878 310.5801,-57.2914"/>
<polygon fill="#000000" stroke="#000000" points="312.6815,-54.4821 302.8206,-50.6075 308.113,-59.7858 312.6815,-54.4821"/>
</g>
<!-- Node0xcacc2f8&#45;&gt;Node0xcacc128 -->
<g id="edge6" class="edge">
<title>Node0xcacc2f8&#45;&gt;Node0xcacc128</title>
<path fill="none" stroke="#000000" d="M331.5468,-174.385C322.3315,-164.531 312.7814,-154.3191 304.1598,-145.0999"/>
<polygon fill="#000000" stroke="#000000" points="306.5505,-142.5321 297.1637,-137.619 301.4378,-147.3134 306.5505,-142.5321"/>
</g>
<!-- Node0xcacc2f8&#45;&gt;Node0xcacc200 -->
<g id="edge5" class="edge">
<title>Node0xcacc2f8&#45;&gt;Node0xcacc200</title>
<path fill="none" stroke="#000000" d="M374.6729,-174.385C374.6729,-165.5164 374.6729,-156.3579 374.6729,-147.8941"/>
<polygon fill="#000000" stroke="#000000" points="378.1729,-147.6189 374.6729,-137.619 371.1729,-147.619 378.1729,-147.6189"/>
</g>
<!-- Node0xcacc4e8 -->
<g id="node8" class="node">
<title>Node0xcacc4e8</title>
<polygon fill="none" stroke="#000000" points="90.1182,-432.5 90.1182,-552.5 211.2275,-552.5 211.2275,-432.5 90.1182,-432.5"/>
<text text-anchor="start" x="98.1182" y="-537.3" font-family="Times,serif" font-size="14.00" fill="#000000">[B7]</text>
<text text-anchor="start" x="98.1182" y="-523.3" font-family="Times,serif" font-size="14.00" fill="#000000"> 1: 1</text>
<text text-anchor="start" x="98.1182" y="-509.3" font-family="Times,serif" font-size="14.00" fill="#000000"> 2: int i = 1;</text>
<text text-anchor="start" x="98.1182" y="-495.3" font-family="Times,serif" font-size="14.00" fill="#000000"> 3: 2</text>
<text text-anchor="start" x="98.1182" y="-481.3" font-family="Times,serif" font-size="14.00" fill="#000000"> 4: int j = 2;</text>
<text text-anchor="start" x="98.1182" y="-467.3" font-family="Times,serif" font-size="14.00" fill="#000000"> 5: 1</text>
<text text-anchor="start" x="98.1182" y="-453.3" font-family="Times,serif" font-size="14.00" fill="#000000"> 6: i</text>
<text text-anchor="start" x="98.1182" y="-439.3" font-family="Times,serif" font-size="14.00" fill="#000000"> 7: [B7.6] = [B7.5]</text>
</g>
<!-- Node0xcacc4e8&#45;&gt;Node0xcacc3f0 -->
<g id="edge9" class="edge">
<title>Node0xcacc4e8&#45;&gt;Node0xcacc3f0</title>
<path fill="none" stroke="#000000" d="M150.6729,-432.2696C150.6729,-423.4916 150.6729,-414.4813 150.6729,-405.7857"/>
<polygon fill="#000000" stroke="#000000" points="154.173,-405.7552 150.6729,-395.7552 147.173,-405.7552 154.173,-405.7552"/>
</g>
<!-- Node0xcacc660 -->
<g id="node9" class="node">
<title>Node0xcacc660</title>
<polygon fill="none" stroke="#000000" points="100.4814,-589.5 100.4814,-625.5 200.8643,-625.5 200.8643,-589.5 100.4814,-589.5"/>
<text text-anchor="start" x="108.4814" y="-603.3" font-family="Times,serif" font-size="14.00" fill="#000000">[B8 (ENTRY)]</text>
</g>
<!-- Node0xcacc660&#45;&gt;Node0xcacc4e8 -->
<g id="edge10" class="edge">
<title>Node0xcacc660&#45;&gt;Node0xcacc4e8</title>
<path fill="none" stroke="#000000" d="M150.6729,-589.2779C150.6729,-581.804 150.6729,-572.6342 150.6729,-562.9474"/>
<polygon fill="#000000" stroke="#000000" points="154.1729,-562.7148 150.6729,-552.7148 147.1729,-562.7148 154.1729,-562.7148"/>
</g>
</g>
</svg>
